<svg xmlns="http://www.w3.org/2000/svg" viewBox="0 0 300 340" role="img" aria-label="Zlati QR podstavek za mizo">
  <!-- Illustration of the printed QR table stand (Zlati QR podstavek za mizo). Drawn in
       place of product photography; swapping in a real shot means
       pointing STAND_VARIANTS[].image at a .webp instead. -->
  <defs>
    <linearGradient id="bg" x1="0" y1="0" x2="0" y2="1">
      <stop offset="0" stop-color="#FBF7F0"/><stop offset="1" stop-color="#EFE7DA"/>
    </linearGradient>
    
    <linearGradient id="brass" x1="0" y1="0" x2="1" y2="1">
      <stop offset="0" stop-color="#E8C87A"/><stop offset=".45" stop-color="#C9A227"/><stop offset="1" stop-color="#A8841C"/>
    </linearGradient>
  </defs>
  <rect width="300" height="340" rx="14" fill="url(#bg)"/>
  <path d="M0 268h300v58a14 14 0 0 1-14 14H14A14 14 0 0 1 0 326z" fill="#E3D6C0" opacity=".55"/>
  <ellipse cx="150" cy="282" rx="86" ry="10" fill="#3A2E1C" opacity=".12"/>

  <!-- brass frame, drawn behind the card -->
  <rect x="66" y="30" width="168" height="222" rx="3" fill="url(#brass)"/>

  <!-- cream card with gold botanical corners -->
  <rect x="74" y="38" width="152" height="206" rx="2" fill="#FBF6EC" stroke="#E8DCC4" stroke-width="1"/>
  <rect x="79" y="43" width="142" height="196" fill="none" stroke="#C9A227" stroke-width=".7" opacity=".55"/>
  <!-- sprig, top-left -->
  <g stroke="#C9A227" stroke-width=".9" fill="none" opacity=".75" stroke-linecap="round">
    <path d="M84 60q10 -5 19 -2"/>
    <path d="M86 58q2 -5 7 -6M90 56q3 -4 8 -4M95 55q3 -3 8 -3"/>
  </g>
  <!-- sprig, top-right (mirrored) -->
  <g stroke="#C9A227" stroke-width=".9" fill="none" opacity=".75" stroke-linecap="round" transform="translate(300 0) scale(-1 1)">
    <path d="M84 60q10 -5 19 -2"/>
    <path d="M86 58q2 -5 7 -6M90 56q3 -4 8 -4M95 55q3 -3 8 -3"/>
  </g>
  <!-- names -->
  <text x="150.0" y="99.8" text-anchor="middle" font-family="Georgia,serif" font-size="13.376"
        letter-spacing="1.6" fill="#B08D4F">MAJA &amp; BOŠTJAN</text>
  <!-- divider -->
  <path d="M136.0 112.16h28" stroke="#C9A227" stroke-width=".7" opacity=".5"/>
  <!-- subhead + body -->
  <text x="150.0" y="128.64" text-anchor="middle" font-family="Georgia,serif" font-size="9.424" fill="#4A4034">Ujemite trenutke z nama</text>
  <text x="150.0" y="145.12"  text-anchor="middle" font-family="Georgia,serif" font-size="6.84" fill="#6B6154">Skenirajte kodo in naložite svoje</text>
  <text x="150.0" y="154.39" text-anchor="middle" font-family="Georgia,serif" font-size="6.84" fill="#6B6154">fotografije v najino galerijo.</text>
  <!-- QR -->
  <rect x="121.12" y="161.6" width="57.76" height="57.76" fill="#FFFFFF"/>
  <g fill="#141821"><rect x="121.12" y="161.60" width="19.25" height="2.75"/><rect x="121.12" y="178.10" width="19.25" height="2.75"/><rect x="121.12" y="161.60" width="2.75" height="19.25"/><rect x="137.62" y="161.60" width="2.75" height="19.25"/><rect x="126.62" y="167.10" width="8.25" height="8.25"/><rect x="159.63" y="161.60" width="19.25" height="2.75"/><rect x="159.63" y="178.10" width="19.25" height="2.75"/><rect x="159.63" y="161.60" width="2.75" height="19.25"/><rect x="176.13" y="161.60" width="2.75" height="19.25"/><rect x="165.13" y="167.10" width="8.25" height="8.25"/><rect x="121.12" y="200.11" width="19.25" height="2.75"/><rect x="121.12" y="216.61" width="19.25" height="2.75"/><rect x="121.12" y="200.11" width="2.75" height="19.25"/><rect x="137.62" y="200.11" width="2.75" height="19.25"/><rect x="126.62" y="205.61" width="8.25" height="8.25"/><rect x="145.87" y="161.60" width="2.75" height="2.75"/><rect x="154.13" y="161.60" width="2.75" height="2.75"/><rect x="145.87" y="164.35" width="2.75" height="2.75"/><rect x="154.13" y="164.35" width="2.75" height="2.75"/><rect x="143.12" y="167.10" width="2.75" height="2.75"/><rect x="148.62" y="167.10" width="2.75" height="2.75"/><rect x="143.12" y="169.85" width="2.75" height="2.75"/><rect x="143.12" y="175.35" width="2.75" height="2.75"/><rect x="145.87" y="175.35" width="2.75" height="2.75"/><rect x="154.13" y="175.35" width="2.75" height="2.75"/><rect x="145.87" y="178.10" width="2.75" height="2.75"/><rect x="148.62" y="178.10" width="2.75" height="2.75"/><rect x="148.62" y="180.85" width="2.75" height="2.75"/><rect x="151.38" y="180.85" width="2.75" height="2.75"/><rect x="154.13" y="180.85" width="2.75" height="2.75"/><rect x="126.62" y="183.60" width="2.75" height="2.75"/><rect x="132.12" y="183.60" width="2.75" height="2.75"/><rect x="134.87" y="183.60" width="2.75" height="2.75"/><rect x="137.62" y="183.60" width="2.75" height="2.75"/><rect x="140.37" y="183.60" width="2.75" height="2.75"/><rect x="151.38" y="183.60" width="2.75" height="2.75"/><rect x="162.38" y="183.60" width="2.75" height="2.75"/><rect x="167.88" y="183.60" width="2.75" height="2.75"/><rect x="170.63" y="183.60" width="2.75" height="2.75"/><rect x="173.38" y="183.60" width="2.75" height="2.75"/><rect x="123.87" y="186.35" width="2.75" height="2.75"/><rect x="126.62" y="186.35" width="2.75" height="2.75"/><rect x="129.37" y="186.35" width="2.75" height="2.75"/><rect x="134.87" y="186.35" width="2.75" height="2.75"/><rect x="140.37" y="186.35" width="2.75" height="2.75"/><rect x="143.12" y="186.35" width="2.75" height="2.75"/><rect x="145.87" y="186.35" width="2.75" height="2.75"/><rect x="156.88" y="186.35" width="2.75" height="2.75"/><rect x="123.87" y="189.10" width="2.75" height="2.75"/><rect x="126.62" y="189.10" width="2.75" height="2.75"/><rect x="129.37" y="189.10" width="2.75" height="2.75"/><rect x="134.87" y="189.10" width="2.75" height="2.75"/><rect x="140.37" y="189.10" width="2.75" height="2.75"/><rect x="143.12" y="189.10" width="2.75" height="2.75"/><rect x="145.87" y="189.10" width="2.75" height="2.75"/><rect x="151.38" y="189.10" width="2.75" height="2.75"/><rect x="154.13" y="189.10" width="2.75" height="2.75"/><rect x="159.63" y="189.10" width="2.75" height="2.75"/><rect x="167.88" y="189.10" width="2.75" height="2.75"/><rect x="176.13" y="189.10" width="2.75" height="2.75"/><rect x="121.12" y="191.86" width="2.75" height="2.75"/><rect x="123.87" y="191.86" width="2.75" height="2.75"/><rect x="132.12" y="191.86" width="2.75" height="2.75"/><rect x="134.87" y="191.86" width="2.75" height="2.75"/><rect x="143.12" y="191.86" width="2.75" height="2.75"/><rect x="148.62" y="191.86" width="2.75" height="2.75"/><rect x="151.38" y="191.86" width="2.75" height="2.75"/><rect x="162.38" y="191.86" width="2.75" height="2.75"/><rect x="121.12" y="194.61" width="2.75" height="2.75"/><rect x="123.87" y="194.61" width="2.75" height="2.75"/><rect x="126.62" y="194.61" width="2.75" height="2.75"/><rect x="134.87" y="194.61" width="2.75" height="2.75"/><rect x="143.12" y="194.61" width="2.75" height="2.75"/><rect x="145.87" y="194.61" width="2.75" height="2.75"/><rect x="154.13" y="194.61" width="2.75" height="2.75"/><rect x="156.88" y="194.61" width="2.75" height="2.75"/><rect x="159.63" y="194.61" width="2.75" height="2.75"/><rect x="170.63" y="194.61" width="2.75" height="2.75"/><rect x="176.13" y="194.61" width="2.75" height="2.75"/><rect x="145.87" y="197.36" width="2.75" height="2.75"/><rect x="148.62" y="197.36" width="2.75" height="2.75"/><rect x="151.38" y="197.36" width="2.75" height="2.75"/><rect x="156.88" y="197.36" width="2.75" height="2.75"/><rect x="170.63" y="197.36" width="2.75" height="2.75"/><rect x="173.38" y="197.36" width="2.75" height="2.75"/><rect x="145.87" y="200.11" width="2.75" height="2.75"/><rect x="154.13" y="200.11" width="2.75" height="2.75"/><rect x="159.63" y="200.11" width="2.75" height="2.75"/><rect x="162.38" y="200.11" width="2.75" height="2.75"/><rect x="167.88" y="200.11" width="2.75" height="2.75"/><rect x="143.12" y="202.86" width="2.75" height="2.75"/><rect x="145.87" y="202.86" width="2.75" height="2.75"/><rect x="148.62" y="202.86" width="2.75" height="2.75"/><rect x="154.13" y="202.86" width="2.75" height="2.75"/><rect x="159.63" y="202.86" width="2.75" height="2.75"/><rect x="167.88" y="202.86" width="2.75" height="2.75"/><rect x="170.63" y="202.86" width="2.75" height="2.75"/><rect x="145.87" y="205.61" width="2.75" height="2.75"/><rect x="148.62" y="205.61" width="2.75" height="2.75"/><rect x="151.38" y="205.61" width="2.75" height="2.75"/><rect x="156.88" y="205.61" width="2.75" height="2.75"/><rect x="165.13" y="205.61" width="2.75" height="2.75"/><rect x="167.88" y="205.61" width="2.75" height="2.75"/><rect x="176.13" y="205.61" width="2.75" height="2.75"/><rect x="148.62" y="208.36" width="2.75" height="2.75"/><rect x="156.88" y="208.36" width="2.75" height="2.75"/><rect x="159.63" y="208.36" width="2.75" height="2.75"/><rect x="165.13" y="208.36" width="2.75" height="2.75"/><rect x="170.63" y="208.36" width="2.75" height="2.75"/><rect x="173.38" y="208.36" width="2.75" height="2.75"/><rect x="176.13" y="208.36" width="2.75" height="2.75"/><rect x="143.12" y="211.11" width="2.75" height="2.75"/><rect x="145.87" y="211.11" width="2.75" height="2.75"/><rect x="156.88" y="211.11" width="2.75" height="2.75"/><rect x="159.63" y="211.11" width="2.75" height="2.75"/><rect x="162.38" y="211.11" width="2.75" height="2.75"/><rect x="165.13" y="211.11" width="2.75" height="2.75"/><rect x="170.63" y="211.11" width="2.75" height="2.75"/><rect x="173.38" y="211.11" width="2.75" height="2.75"/><rect x="176.13" y="211.11" width="2.75" height="2.75"/><rect x="143.12" y="213.86" width="2.75" height="2.75"/><rect x="151.38" y="213.86" width="2.75" height="2.75"/><rect x="154.13" y="213.86" width="2.75" height="2.75"/><rect x="156.88" y="213.86" width="2.75" height="2.75"/><rect x="165.13" y="213.86" width="2.75" height="2.75"/><rect x="167.88" y="213.86" width="2.75" height="2.75"/><rect x="173.38" y="213.86" width="2.75" height="2.75"/><rect x="176.13" y="213.86" width="2.75" height="2.75"/><rect x="148.62" y="216.61" width="2.75" height="2.75"/><rect x="154.13" y="216.61" width="2.75" height="2.75"/><rect x="156.88" y="216.61" width="2.75" height="2.75"/><rect x="159.63" y="216.61" width="2.75" height="2.75"/><rect x="170.63" y="216.61" width="2.75" height="2.75"/><rect x="176.13" y="216.61" width="2.75" height="2.75"/></g>
  <!-- logo lockup -->
  <rect x="124.0" y="222.55" width="7" height="7" rx="1.8" fill="none" stroke="#8C8375" stroke-width="1"/>
  <circle cx="127.5" cy="226.05" r="1.7" fill="#8C8375"/>
  <text x="135.0" y="228.55" font-family="Georgia,serif" font-size="7.6000000000000005" fill="#8C8375">CamLove</text>

  <!-- clear acrylic panel + angled brass foot -->
  <path d="M66 252h168v26H66z" fill="#DCE6EA" opacity=".42"/>
  <path d="M66 252h168v26H66z" fill="none" stroke="url(#brass)" stroke-width="3"/>
  <path d="M74 278l14-26h124l14 26z" fill="url(#brass)" opacity=".92"/>
  <path d="M66 276h168v5a2 2 0 0 1-2 2H68a2 2 0 0 1-2-2z" fill="url(#brass)"/>
</svg>
